HIERARCHY
ROOT Hips
{
  OFFSET 90.7885 88.945 -76.2838
  CHANNELS 6 Xposition Yposition Zposition Zrotation Xrotation Yrotation
  JOINT LeftUpLeg
  {
    OFFSET 8.64259 1.95398 -2.38835
    CHANNELS 3 Zrotation Xrotation Yrotation
    JOINT LeftLeg
    {
      OFFSET 43.7702 0 0
      CHANNELS 3 Zrotation Xrotation Yrotation
      JOINT LeftFoot
      {
        OFFSET 40.6238 0 0
        CHANNELS 3 Zrotation Xrotation Yrotation
        JOINT LeftToeBase
        {
          OFFSET 12.7242 0 0
          CHANNELS 3 Zrotation Xrotation Yrotation
          End Site
          {
            OFFSET 0 0 0
          }
        }
      }
    }
  }
  JOINT RightUpLeg
  {
    OFFSET -8.2249 1.95398 -2.59336
    CHANNELS 3 Zrotation Xrotation Yrotation
    JOINT RightLeg
    {
      OFFSET 43.5653 0 0
      CHANNELS 3 Zrotation Xrotation Yrotation
      JOINT RightFoot
      {
        OFFSET 40.6238 0 0
        CHANNELS 3 Zrotation Xrotation Yrotation
        JOINT RightToeBase
        {
          OFFSET 12.7242 0 0
          CHANNELS 3 Zrotation Xrotation Yrotation
          End Site
          {
            OFFSET 0 0 0
          }
        }
      }
    }
  }
  JOINT Spine
  {
    OFFSET 0.165834 0.87714 6.61349
    CHANNELS 3 Zrotation Xrotation Yrotation
    JOINT Spine1
    {
      OFFSET 7.38963 1.71661e-005 0
      CHANNELS 3 Zrotation Xrotation Yrotation
      JOINT Spine2
      {
        OFFSET 11.9445 1.14441e-005 0
        CHANNELS 3 Zrotation Xrotation Yrotation
        JOINT Spine3
        {
          OFFSET 14.7254 4.19617e-005 0
          CHANNELS 3 Zrotation Xrotation Yrotation
          JOINT Spine4
          {
            OFFSET 10.9679 0 0
            CHANNELS 3 Zrotation Xrotation Yrotation
            JOINT RightShoulder
            {
              OFFSET 2.46616 -1.6653 3.69651
              CHANNELS 3 Zrotation Xrotation Yrotation
              JOINT RightArm
              {
                OFFSET 13.0012 0 0
                CHANNELS 3 Zrotation Xrotation Yrotation
                JOINT RightForeArm
                {
                  OFFSET 28.7848 1.52588e-005 0
                  CHANNELS 3 Zrotation Xrotation Yrotation
                  JOINT RightHand
                  {
                    OFFSET 26.5688 1.52588e-005 0
                    CHANNELS 3 Zrotation Xrotation Yrotation
                    End Site
                    {
                      OFFSET 0 0 0
                    }
                  }
                }
              }
            }
            JOINT LeftShoulder
            {
              OFFSET 2.38034 -1.29275 -3.7523
              CHANNELS 3 Zrotation Xrotation Yrotation
              JOINT LeftArm
              {
                OFFSET 16.3182 6.10352e-005 0
                CHANNELS 3 Zrotation Xrotation Yrotation
                JOINT LeftForeArm
                {
                  OFFSET 27.0901 0 0
                  CHANNELS 3 Zrotation Xrotation Yrotation
                  JOINT LeftHand
                  {
                    OFFSET 24.5451 1.52588e-005 0
                    CHANNELS 3 Zrotation Xrotation Yrotation
                    End Site
                    {
                      OFFSET 0 0 0
                    }
                  }
                }
              }
            }
            JOINT Neck
            {
              OFFSET 5.0226 -0.0266342 0
              CHANNELS 3 Zrotation Xrotation Yrotation
              JOINT Head
              {
                OFFSET 6.69363 2.86102e-005 0
                CHANNELS 3 Zrotation Xrotation Yrotation
                End Site
                {
                  OFFSET 0 0 0
                }
              }
            }
          }
        }
      }
    }
  }
}
MOTION
Frames:	17
Frame Time:	0.0416667
-68.2681 96.1848 85.5624 -102.995 -44.5231 -99.5187 -175.187 8.70634 92.462 -33.8865 14.6235 -0.353635 76.9411 6.77756 -4.99531 16.5425 -0.654751 2.6876 171.051 4.35696 83.1677 -58.3463 -21.3925 -2.80671 63.6043 -2.40537 -0.25042 29.6405 -0.814155 1.75001 1.11781 8.20942 -89.8382 10.4554 2.30092 0.118193 -1.21349 2.30386 0.0167572 -23.7635 2.15896 0.804568 -3.75084 2.15896 0.804573 89.6886 -29.4178 -107.605 31.9142 -8.60451 -9.05666 0.652063 -21.3999 -19.896 -28.2263 -0.593561 -7.18846 -85.2511 -49.8906 85.8461 -28.9252 14.4486 17.1757 6.25966 7.28071 -15.5639 2.55991 0.0448695 -1.2271 -1.84154 -5.35506 -11.5966 -1.34859 -3.89031 -3.52861 
-64.2224 95.3457 80.8801 -101.307 -44.7983 -98.8734 -177.231 14.0734 90.8842 -34.0652 12.8867 0.94252 76.3408 6.58025 -6.08395 11.1659 -4.29569 7.2675 174.618 -3.59288 82.2943 -52.7931 -38.2538 -8.90089 66.6459 -3.62945 0.235892 31.576 -1.23488 2.43207 1.62116 8.01134 -89.8701 10.8555 3.28791 -0.0491137 -0.81126 3.28255 -0.19394 -23.3779 3.1505 0.942313 -3.36525 3.1505 0.9423 88.8935 -29.0905 -109.327 30.3808 -9.76545 -11.6569 0.331132 -22.7055 -20.3828 -26.1353 -0.587757 -7.70649 -83.9884 -50.7587 87.8496 -33.6372 12.3148 20.7805 6.26834 4.10677 -17.4758 -0.212247 -0.0547838 -2.65848 -0.919495 -6.3641 -9.44982 -1.13331 -5.08295 -4.60733 
-59.2783 94.6813 73.7395 -98.4691 -44.8591 -97.2979 -179.044 20.4005 90.7639 -30.4017 12.9874 1.79919 67.2743 3.57784 -5.53318 15.393 -4.05653 6.78083 177.873 -6.23095 84.0469 -44.9457 -44.4492 -14.5488 76.8125 -8.92226 -1.88461 32.225 -2.72754 6.09542 1.95591 7.9641 -89.9711 10.9559 3.90742 -0.312546 -0.70922 3.88987 -0.484475 -23.2902 3.82042 0.878024 -3.27754 3.82042 0.878018 88.943 -27.1424 -110.084 30.1089 -11.6522 -17.5491 1.50017 -19.1585 -19.4547 -25.3134 -0.290925 -8.25657 -82.999 -53.782 89.6117 -34.7419 11.8416 19.4129 5.48824 1.52876 -15.9709 -1.63767 -0.0911125 -4.26099 2.18798 -6.01839 -2.81255 -1.8235 -5.50472 -7.14604 
-53.8018 94.2578 64.7918 -96.549 -50.5823 -96.199 -178.484 23.5591 91.2302 -18.6795 22.0437 -0.0371977 64.004 2.23994 -2.16299 21.9104 -5.17015 7.90715 176.936 0.49209 84.741 -42.2584 -39.5756 -10.5052 84.3579 -12.4681 -1.18778 26.2497 -1.81985 4.66672 1.79191 8.24972 -90.1501 10.3884 3.50095 -0.606396 -1.27809 3.47086 -0.760071 -23.8508 3.52116 0.475159 -3.83817 3.52115 0.475152 88.168 -26.4555 -111.988 27.6669 -12.958 -23.5259 2.00756 -16.2795 -20.0201 -25.2294 -0.0255682 -8.78693 -82.6389 -54.6405 90.2048 -33.6686 11.2311 15.6504 6.12882 0.470041 -17.9035 -0.162245 -0.100275 -4.77544 9.24205 -4.21655 4.20771 -2.67548 -5.00887 -8.13033 
-50.0858 95.3914 57.2377 -93.1176 -62.0677 -94.3495 -178.105 22.7704 89.9158 -10.1446 -8.8831 -3.56904 65.426 4.43595 -4.62083 22.6681 -4.8717 7.47344 173.487 5.44925 85.897 -36.1472 -33.0303 -5.16211 83.3068 -12.1747 -2.83217 22.6167 -1.07767 3.5086 1.59359 8.19958 -90.1996 10.4865 3.0827 -0.670239 -1.181 3.05023 -0.805387 -23.7455 3.14148 0.288147 -3.73286 3.14148 0.288152 87.727 -27.7769 -112.256 28.5475 -15.1257 -23.5979 2.56224 -15.6012 -19.7946 -24.0453 -0.0800425 -8.45875 -83.0715 -51.6 89.3061 -32.7591 10.1706 12.2917 6.51268 -0.767751 -18.5035 1.40937 -0.13665 -5.76704 13.2937 -2.18823 5.57629 -4.71532 -3.43086 -4.84075 
-47.4366 98.129 51.5287 -89.5756 -76.9245 -93.6834 -176.846 24.9891 86.5716 -27.4713 -15.8294 -4.60776 67.1711 3.39498 -2.80028 18.6375 -2.3364 4.47928 171.9 5.82062 85.7082 -26.6459 -19.7896 -3.25166 77.596 -9.1823 -3.38207 21.2051 -0.3858 2.33239 1.30277 8.03973 -89.9109 10.7989 2.63526 -0.0679389 -0.869334 2.62972 -0.183942 -23.4249 2.53376 0.72773 -3.4123 2.53376 0.727731 87.7553 -28.509 -111.855 31.9175 -19.0484 -21.8814 4.57727 -20.0029 -16.6881 -21.8894 -0.0841464 -10.1496 -83.3491 -47.9544 88.5211 -31.6528 8.34844 9.90482 6.58712 -2.48032 -18.3234 6.16336 -0.275177 -6.87746 13.8205 0.853037 5.92794 -5.91914 -0.612731 -2.64342 
-44.8963 99.0059 47.874 105.073 -87.6383 98.7396 -173.893 19.7125 88.6877 -37.1244 -2.00873 -4.31303 70.9695 5.41753 -0.439224 16.0314 0.886233 0.981602 169.806 5.98508 83.6059 -24.0434 -6.44017 -2.14383 75.5102 -7.353 -1.52208 21.2215 0.332389 0.91359 1.12663 7.92875 -89.5926 11.0106 2.43158 0.577815 -0.658151 2.45466 0.470168 -23.2072 2.14547 1.28217 -3.19458 2.14547 1.28217 88.4693 -28.9647 -110.224 36.4394 -22.0633 -17.6926 3.08715 -18.5276 -21.1266 -20.5313 0.0593351 -10.8887 -82.9653 -46.4122 88.9594 -30.9607 6.70425 10.478 9.17631 2.0755 -21.2027 5.5253 -0.0886793 -4.33938 9.36545 5.42435 6.2823 -5.45812 3.91954 0.386306 
-41.3951 99.3677 45.0044 95.3535 -71.882 89.8397 -172.822 13.6019 96.0309 -34.1636 -11.2713 -3.3232 72.1263 5.85674 1.72995 10.9978 2.53276 -0.0903696 167.102 2.80128 82.2209 -19.0232 4.57789 -0.0399495 71.457 -6.32732 -0.275342 25.2371 1.15074 -1.71649 0.878698 7.73059 -89.6861 11.4105 1.89508 0.435213 -0.259158 1.91239 0.35136 -22.8028 1.67664 0.984775 -2.79012 1.67664 0.984769 88.518 -30.0428 -109.667 40.0708 -20.6151 -11.4812 -0.589437 -15.1379 -30.3701 -22.0072 0.466815 -11.9635 -82.4675 -46.8489 89.787 -32.8747 6.2326 13.7657 9.56594 3.86405 -20.3671 3.57985 -0.0679936 -4.03395 2.85851 11.9093 7.50583 -5.55018 10.3743 5.34723 
-36.0839 99.081 41.0521 94.3992 -53.1941 88.653 -172.317 11.11 98.2341 -28.3275 -30.3725 -5.55259 72.5036 5.41872 0.375404 11.7919 1.25461 1.16978 163.188 1.32799 78.7039 -19.5859 17.7801 2.2576 68.1442 -5.17508 1.94406 28.9468 1.99163 -4.72095 0.635233 7.67133 -89.834 11.5307 1.34144 0.193146 -0.139582 1.34867 0.133901 -22.6794 1.22137 0.587438 -2.66678 1.22138 0.587436 88.9179 -30.2079 -108.811 41.7577 -13.9591 -8.44807 -2.47049 -17.891 -33.9913 -24.3395 0.545635 -12.5467 -82.7059 -47.8744 89.5104 -35.0929 8.71409 14.3601 8.00083 4.86585 -16.0354 0.0249826 -0.0769305 -3.71991 -0.771043 15.9611 9.92131 -7.37322 14.1803 7.83469 
-28.8347 97.8639 35.2018 95.0238 -33.4887 87.5856 -171.476 10.8711 93.9698 -29.3412 -28.8188 -7.93297 71.0163 5.05983 -2.36655 16.2337 0.918735 0.858078 158.058 -0.318287 71.5626 -23.8242 24.028 4.3515 62.3715 -1.61485 1.95815 33.4468 3.11797 -9.26433 0.67488 7.72136 -90.0126 11.4324 1.33698 -0.160502 -0.237844 1.32861 -0.219206 -22.7783 1.32341 0.248814 -2.76569 1.32338 0.248802 89.628 -29.0219 -107.885 41.0945 -7.20534 -5.44871 -1.08345 -13.8883 -30.7371 -25.9417 0.928471 -12.7086 -83.3533 -49.1928 88.6444 -35.3827 10.4652 14.4895 6.77165 3.66221 -14.8063 -1.34071 -0.0820864 -3.39487 -3.42374 14.8659 10.9448 -6.30304 13.314 7.75238 
-20.7032 96.44 28.1166 96.0352 -17.2203 86.0415 -171.47 9.32659 87.652 -31.2853 -14.9433 -8.11907 76.8626 7.2872 -6.33344 13.0553 -0.0790508 2.50882 156.983 1.3647 64.1521 -34.1915 17.0191 0.502932 59.8436 0.512044 0.161933 26.113 1.14045 -2.63105 0.943393 7.76228 -89.9866 11.3517 1.88377 -0.161066 -0.317847 1.87485 -0.243854 -22.8639 1.84503 0.412733 -2.8512 1.84507 0.412736 91.1184 -29.0539 -104.871 37.6217 -6.40138 -1.66729 -0.510423 -17.5281 -24.2147 -25.916 0.313818 -10.7952 -84.1756 -49.4541 87.4208 -35.0548 9.47276 14.5992 7.11554 3.31713 -15.383 -3.22766 -0.0994553 -4.49101 -0.799163 12.6563 7.26798 -7.07716 11.2169 8.78858 
-15.1779 95.6297 22.3393 96.7696 -1.08281 84.0943 -174.491 9.13333 83.2564 -35.8516 -4.55432 -6.9186 81.1802 8.41121 -4.18065 8.94865 1.63279 1.17609 170.455 -0.0114615 71.2068 -53.3419 -9.57129 -8.6302 66.979 -4.44194 -3.64092 17.4039 -1.46306 4.95277 0.549629 7.85056 -90.1006 11.1755 1.04724 -0.302688 -0.4951 1.03287 -0.348489 -23.0334 1.08979 0.0260775 -3.02076 1.08978 0.02607 91.11 -28.2211 -105.195 37.6856 -3.50531 2.09684 1.96482 -13.7209 -17.3706 -21.7853 -0.0315063 -8.54442 -84.5999 -52.5647 87.1515 -30.7734 11.0276 10.554 5.6481 1.05483 -10.9868 -3.3665 -0.0961926 -3.64886 0.25855 12.255 9.28799 -5.35709 10.6396 6.25096 
-10.6517 96.3526 18.9456 97.1061 14.1023 85.5479 -176.419 5.43709 84.0593 -32.8832 11.5056 -4.34165 80.76 8.68669 -1.75577 6.43452 3.36061 -0.152756 -177.606 7.88276 83.3765 -66.0865 -8.88103 -8.21364 74.3221 -8.55068 -5.89806 19.9925 -1.69219 5.04893 -0.166448 7.96863 -90.1968 10.9359 -0.422211 -0.351445 -0.735045 -0.437322 -0.332517 -23.2701 -0.297068 -0.462091 -3.25749 -0.297122 -0.462101 90.9727 -29.4969 -105.006 40.2258 -2.20075 6.36631 2.07226 -12.2468 -16.4806 -25.2514 0.103641 -8.3998 -85.8583 -50.8778 85.0717 -25.7602 15.4687 -0.0187349 4.15162 2.35284 -7.26879 -3.29733 -0.0861095 -4.91828 1.22859 11.0486 5.42827 -4.80319 9.94043 6.9998 
-5.8073 97.8853 15.4647 97.3655 33.4599 86.325 -177.868 0.24958 85.6844 -29.4891 29.9907 0.599065 75.9988 7.9268 1.39685 5.36162 4.95536 -1.52306 -179.597 18.2321 87.7839 -58.4033 -1.67506 -5.24373 74.3418 -8.17195 -2.41618 18.6498 -0.551109 3.03117 -0.938754 8.16054 -90.4052 10.5477 -2.05586 -0.620738 -1.12169 -2.0812 -0.529615 -23.6663 -1.77426 -1.21006 -3.65368 -1.77424 -1.21006 91.8181 -28.7931 -103.544 44.8427 -3.0252 9.59363 3.17279 -13.6188 -16.4159 -22.1205 0.370205 -10.8013 -87.2882 -49.4586 82.7039 -20.2923 15.5932 -12.9565 5.83266 4.21679 -12.4689 -2.05437 -0.0953292 -6.24263 3.50315 7.45264 1.6774 -4.14851 6.94783 5.98058 
0.0898011 97.9314 11.4505 97.6088 47.367 86.4537 -175.983 -0.267994 91.5396 -29.9286 44.4655 3.09584 76.1514 9.28537 2.02058 6.17423 7.1103 -3.76667 177.043 21.0894 88.2927 -31.5077 -4.53842 -3.05833 67.059 -5.44087 -2.08768 20.8048 -0.466557 2.57102 -1.15062 8.33369 -90.5521 10.1971 -2.54457 -0.880164 -1.4716 -2.58083 -0.767257 -24.0198 -2.16239 -1.60445 -4.00715 -2.16237 -1.60446 91.6995 -29.7754 -103.456 46.5778 -4.05844 10.9599 3.68484 -14.8574 -15.5661 -21.7125 0.15864 -10.0795 -88.4597 -48.9839 80.8339 -13.8234 16.2336 -26.2277 7.14087 3.69299 -20.3654 -0.354505 -0.180822 -9.3569 6.5278 3.16694 -3.7663 -3.63985 3.78398 5.15717 
7.722 96.4638 5.88743 98.7064 54.6088 86.7232 -170.916 -8.06777 98.1545 -29.7841 56.4055 2.29637 78.1792 11.8089 3.20716 5.73405 8.09673 -4.56931 174.388 19.5609 90.7497 -9.00089 -6.27879 -0.677862 63.4742 -3.22555 -0.125225 26.0953 0.253403 0.00252702 -1.25018 8.42738 -90.679 10.006 -2.80024 -1.11692 -1.66235 -2.84669 -0.992518 -24.2117 -2.3351 -1.90713 -4.19907 -2.33511 -1.90714 91.3712 -31.4799 -103.533 43.8027 -5.265 9.67957 3.61252 -16.6571 -15.3447 -20.2832 0.0478264 -10.3408 -88.9825 -46.9123 79.621 -13.0946 15.2506 -32.8794 11.5937 8.02261 -28.1741 1.09373 -0.2459 -9.47898 7.70824 0.718095 -8.59018 -2.88338 2.42372 5.89685 
16.7544 94.5063 -1.94305 100.688 54.2616 86.1848 -167.796 -15.6316 102.804 -30.2255 57.3875 4.48023 74.5332 9.16472 4.50533 14.7657 12.7145 -12.1704 175.957 21.447 94.2444 -18.6749 -12.3852 -0.583187 59.8039 -0.861867 0.685271 25.8886 -0.118738 0.911396 -1.25014 8.32869 -90.7235 10.2019 -2.8211 -1.19676 -1.46642 -2.87103 -1.07137 -24.0152 -2.33101 -1.98952 -4.00256 -2.33101 -1.98953 91.2699 -32.4585 -103.413 39.7946 -4.6274 7.14548 2.60755 -15.877 -15.4302 -22.7628 -0.147669 -8.42499 -88.7814 -47.8124 80.1171 -13.998 15.1239 -31.108 11.1387 6.88014 -28.2025 2.89296 -0.268807 -8.24575 6.72821 1.54141 -7.95439 -2.86203 3.05055 4.08145 
